<svg width="25" height="47" viewBox="0 0 25 47" fill="none" xmlns="http://www.w3.org/2000/svg">
<path fill-rule="evenodd" clip-rule="evenodd" d="M24.567 8.54606C22.5541 8.63932 22.1389 1.04852 19.9317 0.711779C21.8473 -2.50983 24.4964 6.10905 24.567 8.54606ZM16.2978 26.9593C16.5299 24.3531 18.6039 22.0658 19.7526 19.7957C22.0032 15.3472 21.1072 8.32213 18.4233 5.08209C15.8004 1.91521 10.3649 0.115929 5.2967 1.21884C2.60318 1.80575 -0.741649 6.26932 0.145764 10.0482C0.469148 11.4253 1.88528 13.3285 7.16486 11.6521C9.27165 10.9831 12.5302 8.58682 13.2728 12.6232C14.3429 18.4426 9.23583 19.206 8.28989 23.8656C7.7975 26.2909 8.84938 32.1662 9.11929 33.7739C9.47446 35.8926 12.7865 37.5517 14.9352 35.4297C15.8967 34.4775 15.8932 31.4933 16.2978 26.9593ZM14.635 17.2872C15.423 13.5385 14.9008 9.28543 12.6074 8.20876C8.71519 6.38212 4.98845 11.8598 2.47151 10.4157C0.283998 9.16145 2.9079 4.67555 5.13021 3.60559C8.33076 2.06319 13.3606 2.96897 15.764 5.26637C16.6141 6.07834 17.8179 7.86309 18.2568 8.94478C20.5366 14.5671 17.4506 19.7421 14.9336 23.2915C13.6159 25.1478 14.1567 26.0301 13.9362 27.8891C13.7571 29.3997 14.7031 35.0365 12.1084 34.5099C10.7448 34.2335 10.4976 26.0865 10.8159 24.1482C11.163 22.0412 13.7435 21.533 14.635 17.2872ZM21.1773 4.70124C20.3681 3.32246 19.1699 1.47125 18.3092 2.20392C17.1534 3.18788 19.4701 4.28911 20.47 5.84714C21.2883 7.1254 21.6041 10.1549 22.268 10.4459C22.6848 8.43828 22.1167 6.29948 21.1773 4.70124ZM12.5963 46.581C17.3002 47.5298 18.7547 38.9551 14.1956 38.4938C7.49934 37.8147 10.1631 46.0902 12.5963 46.581ZM14.6274 40.8364C15.2227 42.1102 14.5896 44.5707 13.4045 44.8817C10.5808 44.2982 11.8895 38.4419 14.6274 40.8364Z" fill="url(#paint0_linear_230_8730)"/>
<defs>
<linearGradient id="paint0_linear_230_8730" x1="12.2835" y1="0" x2="12.2835" y2="46.6543" gradientUnits="userSpaceOnUse">
<stop stop-color="#2E8E9D"/>
<stop offset="1" stop-color="#4DA06F"/>
</linearGradient>
</defs>
</svg>
